<?xml version="1.0" standalone="no"?>
<!DOCTYPE svg PUBLIC "-//W3C//DTD SVG 20010904//EN"
 "http://www.w3.org/TR/2001/REC-SVG-20010904/DTD/svg10.dtd">
<svg version="1.0" xmlns="http://www.w3.org/2000/svg"
 width="705.000000pt" height="555.000000pt" viewBox="0 0 705.000000 555.000000"
 preserveAspectRatio="xMidYMid meet">

<g transform="translate(0.000000,555.000000) scale(0.100000,-0.100000)"
fill="#000000" stroke="none">
<path d="M6100 5325 c0 -20 -5 -25 -25 -25 l-25 0 0 -275 0 -275 25 0 c20 0
25 -5 25 -25 l0 -25 100 0 100 0 0 -25 c0 -20 5 -25 25 -25 20 0 25 -5 25 -25
0 -20 5 -25 25 -25 20 0 25 -5 25 -25 0 -23 3 -25 50 -25 47 0 50 2 50 25 0
20 5 25 25 25 20 0 25 5 25 25 0 20 5 25 25 25 20 0 25 5 25 25 l0 25 100 0
100 0 0 25 c0 20 5 25 25 25 l25 0 0 275 0 275 -25 0 c-20 0 -25 5 -25 25 l0
25 -350 0 -350 0 0 -25z m700 -300 l0 -275 -100 0 -100 0 0 -25 c0 -20 -5 -25
-25 -25 -20 0 -25 -5 -25 -25 0 -20 -5 -25 -25 -25 -20 0 -25 -5 -25 -25 0
-23 -3 -25 -50 -25 -47 0 -50 2 -50 25 0 20 -5 25 -25 25 -20 0 -25 5 -25 25
0 20 -5 25 -25 25 -20 0 -25 5 -25 25 l0 25 -100 0 -100 0 0 275 0 275 350 0
350 0 0 -275z"/>
<path d="M5350 5275 c0 -20 -5 -25 -25 -25 l-25 0 0 -225 0 -225 25 0 c20 0
25 -5 25 -25 0 -20 5 -25 25 -25 20 0 25 -5 25 -25 0 -20 5 -25 25 -25 20 0
25 -5 25 -25 0 -23 3 -25 50 -25 47 0 50 -2 50 -25 0 -20 5 -25 25 -25 20 0
25 -5 25 -25 0 -23 3 -25 50 -25 47 0 50 2 50 25 0 20 5 25 25 25 20 0 25 5
25 25 0 23 3 25 50 25 47 0 50 2 50 25 0 20 5 25 25 25 20 0 25 5 25 25 0 20
5 25 25 25 20 0 25 5 25 25 0 20 5 25 25 25 l25 0 0 225 0 225 -25 0 c-20 0
-25 5 -25 25 l0 25 -300 0 -300 0 0 -25z m600 -250 l0 -225 -25 0 c-20 0 -25
-5 -25 -25 0 -20 -5 -25 -25 -25 -20 0 -25 -5 -25 -25 0 -23 -3 -25 -50 -25
-47 0 -50 -2 -50 -25 0 -20 -5 -25 -25 -25 -20 0 -25 -5 -25 -25 0 -23 -3 -25
-50 -25 -47 0 -50 2 -50 25 0 20 -5 25 -25 25 -20 0 -25 5 -25 25 0 23 -3 25
-50 25 -47 0 -50 2 -50 25 0 20 -5 25 -25 25 -20 0 -25 5 -25 25 0 20 -5 25
-25 25 l-25 0 0 225 0 225 300 0 300 0 0 -225z"/>
<path d="M4600 5175 c0 -20 -5 -25 -25 -25 l-25 0 0 -150 0 -150 25 0 c20 0
25 -5 25 -25 0 -20 5 -25 25 -25 20 0 25 -5 25 -25 0 -23 3 -25 50 -25 47 0
50 -2 50 -25 0 -23 3 -25 50 -25 47 0 50 2 50 25 0 23 3 25 50 25 47 0 50 2
50 25 0 20 5 25 25 25 20 0 25 5 25 25 0 20 5 25 25 25 l25 0 0 150 0 150 -25
0 c-20 0 -25 5 -25 25 l0 25 -200 0 -200 0 0 -25z m400 -175 l0 -150 -25 0
c-20 0 -25 -5 -25 -25 0 -23 -3 -25 -50 -25 -47 0 -50 -2 -50 -25 0 -23 -3
-25 -50 -25 -47 0 -50 2 -50 25 0 23 -3 25 -50 25 -47 0 -50 2 -50 25 0 20 -5
25 -25 25 l-25 0 0 150 0 150 200 0 200 0 0 -150z"/>
<path d="M3850 5075 c0 -20 -5 -25 -25 -25 -23 0 -25 -3 -25 -50 0 -47 2 -50
25 -50 20 0 25 -5 25 -25 0 -20 5 -25 25 -25 20 0 25 -5 25 -25 0 -23 3 -25
50 -25 47 0 50 2 50 25 0 20 5 25 25 25 20 0 25 5 25 25 0 20 5 25 25 25 23 0
25 3 25 50 0 47 -2 50 -25 50 -20 0 -25 5 -25 25 l0 25 -100 0 -100 0 0 -25z
m200 -75 c0 -47 -2 -50 -25 -50 -20 0 -25 -5 -25 -25 0 -23 -3 -25 -50 -25
-47 0 -50 2 -50 25 0 20 -5 25 -25 25 -23 0 -25 3 -25 50 l0 50 100 0 100 0 0
-50z"/>
<path d="M3000 5025 c0 -20 -5 -25 -25 -25 -23 0 -25 -3 -25 -50 0 -47 2 -50
25 -50 20 0 25 -5 25 -25 0 -20 5 -25 25 -25 20 0 25 -5 25 -25 0 -23 3 -25
50 -25 47 0 50 2 50 25 0 20 5 25 25 25 20 0 25 5 25 25 0 20 5 25 25 25 23 0
25 3 25 50 0 47 -2 50 -25 50 -20 0 -25 5 -25 25 l0 25 -100 0 -100 0 0 -25z
m200 -75 c0 -47 -2 -50 -25 -50 -20 0 -25 -5 -25 -25 0 -23 -3 -25 -50 -25
-47 0 -50 2 -50 25 0 20 -5 25 -25 25 -23 0 -25 3 -25 50 l0 50 100 0 100 0 0
-50z"/>
<path d="M2150 4850 c0 -47 2 -50 25 -50 20 0 25 -5 25 -25 0 -23 3 -25 50
-25 47 0 50 2 50 25 0 20 5 25 25 25 23 0 25 3 25 50 l0 50 -100 0 -100 0 0
-50z m150 -25 c0 -23 -3 -25 -50 -25 -47 0 -50 2 -50 25 0 23 3 25 50 25 47 0
50 -2 50 -25z"/>
<path d="M1300 4750 c0 -47 2 -50 25 -50 20 0 25 -5 25 -25 0 -23 3 -25 50
-25 47 0 50 2 50 25 0 20 5 25 25 25 23 0 25 3 25 50 l0 50 -100 0 -100 0 0
-50z m150 -25 c0 -23 -3 -25 -50 -25 -47 0 -50 2 -50 25 0 23 3 25 50 25 47 0
50 -2 50 -25z"/>
<path d="M450 4650 c0 -47 2 -50 25 -50 20 0 25 -5 25 -25 0 -23 3 -25 50 -25
47 0 50 2 50 25 0 20 5 25 25 25 23 0 25 3 25 50 l0 50 -100 0 -100 0 0 -50z
m150 -25 c0 -23 -3 -25 -50 -25 -47 0 -50 2 -50 25 0 23 3 25 50 25 47 0 50
-2 50 -25z"/>
<path d="M200 4325 c0 -20 -5 -25 -25 -25 l-25 0 0 -275 0 -275 25 0 c20 0 25
-5 25 -25 l0 -25 100 0 100 0 0 -25 c0 -20 5 -25 25 -25 20 0 25 -5 25 -25 0
-20 5 -25 25 -25 20 0 25 -5 25 -25 0 -23 3 -25 50 -25 47 0 50 2 50 25 0 20
5 25 25 25 20 0 25 5 25 25 0 20 5 25 25 25 20 0 25 5 25 25 l0 25 100 0 100
0 0 25 c0 20 5 25 25 25 l25 0 0 275 0 275 -25 0 c-20 0 -25 5 -25 25 l0 25
-350 0 -350 0 0 -25z m700 -300 l0 -275 -100 0 -100 0 0 -25 c0 -20 -5 -25
-25 -25 -20 0 -25 -5 -25 -25 0 -20 -5 -25 -25 -25 -20 0 -25 -5 -25 -25 0
-23 -3 -25 -50 -25 -47 0 -50 2 -50 25 0 20 -5 25 -25 25 -20 0 -25 5 -25 25
0 20 -5 25 -25 25 -20 0 -25 5 -25 25 l0 25 -100 0 -100 0 0 275 0 275 350 0
350 0 0 -275z"/>
<path d="M1050 4325 c0 -20 -5 -25 -25 -25 l-25 0 0 -275 0 -275 25 0 c20 0
25 -5 25 -25 l0 -25 100 0 100 0 0 -25 c0 -20 5 -25 25 -25 20 0 25 -5 25 -25
0 -20 5 -25 25 -25 20 0 25 -5 25 -25 0 -23 3 -25 50 -25 47 0 50 2 50 25 0
20 5 25 25 25 20 0 25 5 25 25 0 20 5 25 25 25 20 0 25 5 25 25 l0 25 100 0
100 0 0 25 c0 20 5 25 25 25 l25 0 0 275 0 275 -25 0 c-20 0 -25 5 -25 25 l0
25 -350 0 -350 0 0 -25z m700 -300 l0 -275 -100 0 -100 0 0 -25 c0 -20 -5 -25
-25 -25 -20 0 -25 -5 -25 -25 0 -20 -5 -25 -25 -25 -20 0 -25 -5 -25 -25 0
-23 -3 -25 -50 -25 -47 0 -50 2 -50 25 0 20 -5 25 -25 25 -20 0 -25 5 -25 25
0 20 -5 25 -25 25 -20 0 -25 5 -25 25 l0 25 -100 0 -100 0 0 275 0 275 350 0
350 0 0 -275z"/>
<path d="M1900 4325 c0 -20 -5 -25 -25 -25 l-25 0 0 -275 0 -275 25 0 c20 0
25 -5 25 -25 l0 -25 100 0 100 0 0 -25 c0 -20 5 -25 25 -25 20 0 25 -5 25 -25
0 -20 5 -25 25 -25 20 0 25 -5 25 -25 0 -23 3 -25 50 -25 47 0 50 2 50 25 0
20 5 25 25 25 20 0 25 5 25 25 0 20 5 25 25 25 20 0 25 5 25 25 l0 25 100 0
100 0 0 25 c0 20 5 25 25 25 l25 0 0 275 0 275 -25 0 c-20 0 -25 5 -25 25 l0
25 -350 0 -350 0 0 -25z m700 -300 l0 -275 -100 0 -100 0 0 -25 c0 -20 -5 -25
-25 -25 -20 0 -25 -5 -25 -25 0 -20 -5 -25 -25 -25 -20 0 -25 -5 -25 -25 0
-23 -3 -25 -50 -25 -47 0 -50 2 -50 25 0 20 -5 25 -25 25 -20 0 -25 5 -25 25
0 20 -5 25 -25 25 -20 0 -25 5 -25 25 l0 25 -100 0 -100 0 0 275 0 275 350 0
350 0 0 -275z"/>
<path d="M2750 4325 c0 -20 -5 -25 -25 -25 l-25 0 0 -275 0 -275 25 0 c20 0
25 -5 25 -25 l0 -25 100 0 100 0 0 -25 c0 -20 5 -25 25 -25 20 0 25 -5 25 -25
0 -20 5 -25 25 -25 20 0 25 -5 25 -25 0 -23 3 -25 50 -25 47 0 50 2 50 25 0
20 5 25 25 25 20 0 25 5 25 25 0 20 5 25 25 25 20 0 25 5 25 25 l0 25 100 0
100 0 0 25 c0 20 5 25 25 25 l25 0 0 275 0 275 -25 0 c-20 0 -25 5 -25 25 l0
25 -350 0 -350 0 0 -25z m700 -300 l0 -275 -100 0 -100 0 0 -25 c0 -20 -5 -25
-25 -25 -20 0 -25 -5 -25 -25 0 -20 -5 -25 -25 -25 -20 0 -25 -5 -25 -25 0
-23 -3 -25 -50 -25 -47 0 -50 2 -50 25 0 20 -5 25 -25 25 -20 0 -25 5 -25 25
0 20 -5 25 -25 25 -20 0 -25 5 -25 25 l0 25 -100 0 -100 0 0 275 0 275 350 0
350 0 0 -275z"/>
<path d="M200 3475 c0 -20 -5 -25 -25 -25 l-25 0 0 -275 0 -275 25 0 c20 0 25
-5 25 -25 l0 -25 100 0 100 0 0 -25 c0 -20 5 -25 25 -25 20 0 25 -5 25 -25 0
-20 5 -25 25 -25 20 0 25 -5 25 -25 0 -23 3 -25 50 -25 47 0 50 2 50 25 0 20
5 25 25 25 20 0 25 5 25 25 0 20 5 25 25 25 20 0 25 5 25 25 l0 25 100 0 100
0 0 25 c0 20 5 25 25 25 l25 0 0 275 0 275 -25 0 c-20 0 -25 5 -25 25 l0 25
-350 0 -350 0 0 -25z m700 -300 l0 -275 -100 0 -100 0 0 -25 c0 -20 -5 -25
-25 -25 -20 0 -25 -5 -25 -25 0 -20 -5 -25 -25 -25 -20 0 -25 -5 -25 -25 0
-23 -3 -25 -50 -25 -47 0 -50 2 -50 25 0 20 -5 25 -25 25 -20 0 -25 5 -25 25
0 20 -5 25 -25 25 -20 0 -25 5 -25 25 l0 25 -100 0 -100 0 0 275 0 275 350 0
350 0 0 -275z"/>
<path d="M450 3325 c0 -20 -5 -25 -25 -25 -23 0 -25 -3 -25 -50 l0 -50 50 0
50 0 0 50 0 50 50 0 50 0 0 -50 c0 -47 -2 -50 -25 -50 -20 0 -25 -5 -25 -25 0
-20 -5 -25 -25 -25 -23 0 -25 -3 -25 -50 l0 -50 50 0 c47 0 50 2 50 25 0 20 5
25 25 25 20 0 25 5 25 25 0 20 5 25 25 25 24 0 25 2 25 75 0 73 -1 75 -25 75
-20 0 -25 5 -25 25 l0 25 -100 0 -100 0 0 -25z"/>
<path d="M500 2950 l0 -50 50 0 50 0 0 50 0 50 -50 0 -50 0 0 -50z"/>
<path d="M1050 3475 c0 -20 -5 -25 -25 -25 l-25 0 0 -275 0 -275 25 0 c20 0
25 -5 25 -25 l0 -25 100 0 100 0 0 -25 c0 -20 5 -25 25 -25 20 0 25 -5 25 -25
0 -20 5 -25 25 -25 20 0 25 -5 25 -25 0 -23 3 -25 50 -25 47 0 50 2 50 25 0
20 5 25 25 25 20 0 25 5 25 25 0 20 5 25 25 25 20 0 25 5 25 25 l0 25 100 0
100 0 0 25 c0 20 5 25 25 25 l25 0 0 275 0 275 -25 0 c-20 0 -25 5 -25 25 l0
25 -350 0 -350 0 0 -25z m700 -300 l0 -275 -100 0 -100 0 0 -25 c0 -20 -5 -25
-25 -25 -20 0 -25 -5 -25 -25 0 -20 -5 -25 -25 -25 -20 0 -25 -5 -25 -25 0
-23 -3 -25 -50 -25 -47 0 -50 2 -50 25 0 20 -5 25 -25 25 -20 0 -25 5 -25 25
0 20 -5 25 -25 25 -20 0 -25 5 -25 25 l0 25 -100 0 -100 0 0 275 0 275 350 0
350 0 0 -275z"/>
<path d="M1900 3475 c0 -20 -5 -25 -25 -25 l-25 0 0 -275 0 -275 25 0 c20 0
25 -5 25 -25 l0 -25 100 0 100 0 0 -25 c0 -20 5 -25 25 -25 20 0 25 -5 25 -25
0 -20 5 -25 25 -25 20 0 25 -5 25 -25 0 -23 3 -25 50 -25 47 0 50 2 50 25 0
20 5 25 25 25 20 0 25 5 25 25 0 20 5 25 25 25 20 0 25 5 25 25 l0 25 100 0
100 0 0 25 c0 20 5 25 25 25 l25 0 0 275 0 275 -25 0 c-20 0 -25 5 -25 25 l0
25 -350 0 -350 0 0 -25z m700 -300 l0 -275 -100 0 -100 0 0 -25 c0 -20 -5 -25
-25 -25 -20 0 -25 -5 -25 -25 0 -20 -5 -25 -25 -25 -20 0 -25 -5 -25 -25 0
-23 -3 -25 -50 -25 -47 0 -50 2 -50 25 0 20 -5 25 -25 25 -20 0 -25 5 -25 25
0 20 -5 25 -25 25 -20 0 -25 5 -25 25 l0 25 -100 0 -100 0 0 275 0 275 350 0
350 0 0 -275z"/>
<path d="M2200 3225 l0 -125 50 0 50 0 0 125 0 125 -50 0 -50 0 0 -125z"/>
<path d="M2200 3000 l0 -50 50 0 50 0 0 50 0 50 -50 0 -50 0 0 -50z"/>
<path d="M2750 3475 c0 -20 -5 -25 -25 -25 l-25 0 0 -275 0 -275 25 0 c20 0
25 -5 25 -25 l0 -25 100 0 100 0 0 -25 c0 -20 5 -25 25 -25 20 0 25 -5 25 -25
0 -20 5 -25 25 -25 20 0 25 -5 25 -25 0 -23 3 -25 50 -25 47 0 50 2 50 25 0
20 5 25 25 25 20 0 25 5 25 25 0 20 5 25 25 25 20 0 25 5 25 25 l0 25 100 0
100 0 0 25 c0 20 5 25 25 25 l25 0 0 275 0 275 -25 0 c-20 0 -25 5 -25 25 l0
25 -350 0 -350 0 0 -25z m700 -300 l0 -275 -100 0 -100 0 0 -25 c0 -20 -5 -25
-25 -25 -20 0 -25 -5 -25 -25 0 -20 -5 -25 -25 -25 -20 0 -25 -5 -25 -25 0
-23 -3 -25 -50 -25 -47 0 -50 2 -50 25 0 20 -5 25 -25 25 -20 0 -25 5 -25 25
0 20 -5 25 -25 25 -20 0 -25 5 -25 25 l0 25 -100 0 -100 0 0 275 0 275 350 0
350 0 0 -275z"/>
<path d="M3050 3225 l0 -125 50 0 50 0 0 125 0 125 -50 0 -50 0 0 -125z"/>
<path d="M3050 3000 l0 -50 50 0 50 0 0 50 0 50 -50 0 -50 0 0 -50z"/>
<path d="M3600 3475 c0 -20 -5 -25 -25 -25 l-25 0 0 -275 0 -275 25 0 c20 0
25 -5 25 -25 l0 -25 100 0 100 0 0 -25 c0 -20 5 -25 25 -25 20 0 25 -5 25 -25
0 -20 5 -25 25 -25 20 0 25 -5 25 -25 0 -23 3 -25 50 -25 47 0 50 2 50 25 0
20 5 25 25 25 20 0 25 5 25 25 0 20 5 25 25 25 20 0 25 5 25 25 l0 25 100 0
100 0 0 25 c0 20 5 25 25 25 l25 0 0 275 0 275 -25 0 c-20 0 -25 5 -25 25 l0
25 -350 0 -350 0 0 -25z m700 -300 l0 -275 -100 0 -100 0 0 -25 c0 -20 -5 -25
-25 -25 -20 0 -25 -5 -25 -25 0 -20 -5 -25 -25 -25 -20 0 -25 -5 -25 -25 0
-23 -3 -25 -50 -25 -47 0 -50 2 -50 25 0 20 -5 25 -25 25 -20 0 -25 5 -25 25
0 20 -5 25 -25 25 -20 0 -25 5 -25 25 l0 25 -100 0 -100 0 0 275 0 275 350 0
350 0 0 -275z"/>
<path d="M3750 3300 c0 -47 2 -50 25 -50 20 0 25 -5 25 -25 0 -20 5 -25 25
-25 20 0 25 -5 25 -25 0 -20 -5 -25 -25 -25 -20 0 -25 -5 -25 -25 0 -20 -5
-25 -25 -25 -23 0 -25 -3 -25 -50 l0 -50 50 0 c47 0 50 2 50 25 0 20 5 25 25
25 20 0 25 5 25 25 0 23 3 25 50 25 47 0 50 -2 50 -25 0 -20 5 -25 25 -25 20
0 25 -5 25 -25 0 -23 3 -25 50 -25 l50 0 0 50 c0 47 -2 50 -25 50 -20 0 -25 5
-25 25 0 20 -5 25 -25 25 -20 0 -25 5 -25 25 0 20 5 25 25 25 20 0 25 5 25 25
0 20 5 25 25 25 23 0 25 3 25 50 l0 50 -50 0 c-47 0 -50 -2 -50 -25 0 -20 -5
-25 -25 -25 -20 0 -25 -5 -25 -25 0 -23 -3 -25 -50 -25 -47 0 -50 2 -50 25 0
20 -5 25 -25 25 -20 0 -25 5 -25 25 0 23 -3 25 -50 25 l-50 0 0 -50z"/>
<path d="M4450 3475 c0 -20 -5 -25 -25 -25 l-25 0 0 -275 0 -275 25 0 c20 0
25 -5 25 -25 l0 -25 100 0 100 0 0 -25 c0 -20 5 -25 25 -25 20 0 25 -5 25 -25
0 -20 5 -25 25 -25 20 0 25 -5 25 -25 0 -23 3 -25 50 -25 47 0 50 2 50 25 0
20 5 25 25 25 20 0 25 5 25 25 0 20 5 25 25 25 20 0 25 5 25 25 l0 25 100 0
100 0 0 25 c0 20 5 25 25 25 l25 0 0 275 0 275 -25 0 c-20 0 -25 5 -25 25 l0
25 -350 0 -350 0 0 -25z m700 -300 l0 -275 -100 0 -100 0 0 -25 c0 -20 -5 -25
-25 -25 -20 0 -25 -5 -25 -25 0 -20 -5 -25 -25 -25 -20 0 -25 -5 -25 -25 0
-23 -3 -25 -50 -25 -47 0 -50 2 -50 25 0 20 -5 25 -25 25 -20 0 -25 5 -25 25
0 20 -5 25 -25 25 -20 0 -25 5 -25 25 l0 25 -100 0 -100 0 0 275 0 275 350 0
350 0 0 -275z"/>
<path d="M200 2625 c0 -20 -5 -25 -25 -25 l-25 0 0 -275 0 -275 25 0 c20 0 25
-5 25 -25 l0 -25 100 0 100 0 0 -25 c0 -20 5 -25 25 -25 20 0 25 -5 25 -25 0
-20 5 -25 25 -25 20 0 25 -5 25 -25 0 -23 3 -25 50 -25 47 0 50 2 50 25 0 20
5 25 25 25 20 0 25 5 25 25 0 20 5 25 25 25 20 0 25 5 25 25 l0 25 100 0 100
0 0 25 c0 20 5 25 25 25 l25 0 0 275 0 275 -25 0 c-20 0 -25 5 -25 25 l0 25
-350 0 -350 0 0 -25z m700 -300 l0 -275 -100 0 -100 0 0 -25 c0 -20 -5 -25
-25 -25 -20 0 -25 -5 -25 -25 0 -20 -5 -25 -25 -25 -20 0 -25 -5 -25 -25 0
-23 -3 -25 -50 -25 -47 0 -50 2 -50 25 0 20 -5 25 -25 25 -20 0 -25 5 -25 25
0 20 -5 25 -25 25 -20 0 -25 5 -25 25 l0 25 -100 0 -100 0 0 275 0 275 350 0
350 0 0 -275z"/>
<path d="M600 2425 c0 -20 5 -25 25 -25 l25 0 0 -100 0 -100 -25 0 c-20 0 -25
-5 -25 -25 0 -20 5 -25 25 -25 20 0 25 5 25 25 0 20 5 25 25 25 l25 0 0 100 0
100 -25 0 c-20 0 -25 5 -25 25 0 20 -5 25 -25 25 -20 0 -25 -5 -25 -25z"/>
<path d="M400 2375 c0 -23 3 -25 50 -25 47 0 50 2 50 25 0 23 -3 25 -50 25
-47 0 -50 -2 -50 -25z"/>
<path d="M400 2225 c0 -23 3 -25 50 -25 47 0 50 2 50 25 0 23 -3 25 -50 25
-47 0 -50 -2 -50 -25z"/>
<path d="M1050 2625 c0 -20 -5 -25 -25 -25 l-25 0 0 -275 0 -275 25 0 c20 0
25 -5 25 -25 l0 -25 100 0 100 0 0 -25 c0 -20 5 -25 25 -25 20 0 25 -5 25 -25
0 -20 5 -25 25 -25 20 0 25 -5 25 -25 0 -23 3 -25 50 -25 47 0 50 2 50 25 0
20 5 25 25 25 20 0 25 5 25 25 0 20 5 25 25 25 20 0 25 5 25 25 l0 25 100 0
100 0 0 25 c0 20 5 25 25 25 l25 0 0 275 0 275 -25 0 c-20 0 -25 5 -25 25 l0
25 -350 0 -350 0 0 -25z m700 -300 l0 -275 -100 0 -100 0 0 -25 c0 -20 -5 -25
-25 -25 -20 0 -25 -5 -25 -25 0 -20 -5 -25 -25 -25 -20 0 -25 -5 -25 -25 0
-23 -3 -25 -50 -25 -47 0 -50 2 -50 25 0 20 -5 25 -25 25 -20 0 -25 5 -25 25
0 20 -5 25 -25 25 -20 0 -25 5 -25 25 l0 25 -100 0 -100 0 0 275 0 275 350 0
350 0 0 -275z"/>
<path d="M1500 2425 c0 -20 -5 -25 -25 -25 l-25 0 0 -100 0 -100 25 0 c20 0
25 -5 25 -25 0 -20 5 -25 25 -25 20 0 25 5 25 25 0 20 -5 25 -25 25 l-25 0 0
100 0 100 25 0 c20 0 25 5 25 25 0 20 -5 25 -25 25 -20 0 -25 -5 -25 -25z"/>
<path d="M1250 2375 c0 -23 3 -25 50 -25 47 0 50 2 50 25 0 23 -3 25 -50 25
-47 0 -50 -2 -50 -25z"/>
<path d="M1250 2225 c0 -23 3 -25 50 -25 47 0 50 2 50 25 0 23 -3 25 -50 25
-47 0 -50 -2 -50 -25z"/>
<path d="M1900 2625 c0 -20 -5 -25 -25 -25 l-25 0 0 -275 0 -275 25 0 c20 0
25 -5 25 -25 l0 -25 100 0 100 0 0 -25 c0 -20 5 -25 25 -25 20 0 25 -5 25 -25
0 -20 5 -25 25 -25 20 0 25 -5 25 -25 0 -23 3 -25 50 -25 47 0 50 2 50 25 0
20 5 25 25 25 20 0 25 5 25 25 0 20 5 25 25 25 20 0 25 5 25 25 l0 25 100 0
100 0 0 25 c0 20 5 25 25 25 l25 0 0 275 0 275 -25 0 c-20 0 -25 5 -25 25 l0
25 -350 0 -350 0 0 -25z m700 -300 l0 -275 -100 0 -100 0 0 -25 c0 -20 -5 -25
-25 -25 -20 0 -25 -5 -25 -25 0 -20 -5 -25 -25 -25 -20 0 -25 -5 -25 -25 0
-23 -3 -25 -50 -25 -47 0 -50 2 -50 25 0 20 -5 25 -25 25 -20 0 -25 5 -25 25
0 20 -5 25 -25 25 -20 0 -25 5 -25 25 l0 25 -100 0 -100 0 0 275 0 275 350 0
350 0 0 -275z"/>
<path d="M2100 2400 l0 -50 50 0 c47 0 50 2 50 25 0 20 -5 25 -25 25 -20 0
-25 5 -25 25 0 20 -5 25 -25 25 -23 0 -25 -3 -25 -50z"/>
<path d="M2350 2425 c0 -20 -5 -25 -25 -25 l-25 0 0 -100 0 -100 25 0 c20 0
25 -5 25 -25 0 -20 5 -25 25 -25 20 0 25 5 25 25 0 20 -5 25 -25 25 l-25 0 0
100 0 100 25 0 c20 0 25 5 25 25 0 20 -5 25 -25 25 -20 0 -25 -5 -25 -25z"/>
<path d="M2100 2200 c0 -47 2 -50 25 -50 20 0 25 5 25 25 0 20 5 25 25 25 20
0 25 5 25 25 0 23 -3 25 -50 25 l-50 0 0 -50z"/>
<path d="M2750 2625 c0 -20 -5 -25 -25 -25 l-25 0 0 -275 0 -275 25 0 c20 0
25 -5 25 -25 l0 -25 100 0 100 0 0 -25 c0 -20 5 -25 25 -25 20 0 25 -5 25 -25
0 -20 5 -25 25 -25 20 0 25 -5 25 -25 0 -23 3 -25 50 -25 47 0 50 2 50 25 0
20 5 25 25 25 20 0 25 5 25 25 0 20 5 25 25 25 20 0 25 5 25 25 l0 25 100 0
100 0 0 25 c0 20 5 25 25 25 l25 0 0 275 0 275 -25 0 c-20 0 -25 5 -25 25 l0
25 -350 0 -350 0 0 -25z m700 -300 l0 -275 -100 0 -100 0 0 -25 c0 -20 -5 -25
-25 -25 -20 0 -25 -5 -25 -25 0 -20 -5 -25 -25 -25 -20 0 -25 -5 -25 -25 0
-23 -3 -25 -50 -25 -47 0 -50 2 -50 25 0 20 -5 25 -25 25 -20 0 -25 5 -25 25
0 20 -5 25 -25 25 -20 0 -25 5 -25 25 l0 25 -100 0 -100 0 0 275 0 275 350 0
350 0 0 -275z"/>
<path d="M3000 2475 c0 -23 -3 -25 -50 -25 -47 0 -50 -2 -50 -25 0 -24 2 -25
75 -25 l75 0 0 50 c0 47 -2 50 -25 50 -20 0 -25 -5 -25 -25z"/>
<path d="M3150 2425 l0 -75 75 0 c73 0 75 1 75 25 0 23 -3 25 -50 25 l-50 0 0
50 c0 47 -2 50 -25 50 -24 0 -25 -2 -25 -75z"/>
<path d="M2900 2275 c0 -23 3 -25 50 -25 l50 0 0 -50 c0 -47 2 -50 25 -50 24
0 25 2 25 75 l0 75 -75 0 c-73 0 -75 -1 -75 -25z"/>
<path d="M3150 2200 c0 -47 2 -50 25 -50 20 0 25 5 25 25 0 23 3 25 50 25 47
0 50 2 50 25 0 24 -2 25 -75 25 l-75 0 0 -50z"/>
<path d="M3600 2625 c0 -20 -5 -25 -25 -25 l-25 0 0 -275 0 -275 25 0 c20 0
25 -5 25 -25 l0 -25 100 0 100 0 0 -25 c0 -20 5 -25 25 -25 20 0 25 -5 25 -25
0 -20 5 -25 25 -25 20 0 25 -5 25 -25 0 -23 3 -25 50 -25 47 0 50 2 50 25 0
20 5 25 25 25 20 0 25 5 25 25 0 20 5 25 25 25 20 0 25 5 25 25 l0 25 100 0
100 0 0 25 c0 20 5 25 25 25 l25 0 0 275 0 275 -25 0 c-20 0 -25 5 -25 25 l0
25 -350 0 -350 0 0 -25z m700 -300 l0 -275 -100 0 -100 0 0 -25 c0 -20 -5 -25
-25 -25 -20 0 -25 -5 -25 -25 0 -20 -5 -25 -25 -25 -20 0 -25 -5 -25 -25 0
-23 -3 -25 -50 -25 -47 0 -50 2 -50 25 0 20 -5 25 -25 25 -20 0 -25 5 -25 25
0 20 -5 25 -25 25 -20 0 -25 5 -25 25 l0 25 -100 0 -100 0 0 275 0 275 350 0
350 0 0 -275z"/>
<path d="M3800 2425 c0 -20 -5 -25 -25 -25 -24 0 -25 -2 -25 -75 0 -73 1 -75
25 -75 20 0 25 -5 25 -25 0 -20 5 -25 25 -25 20 0 25 -5 25 -25 0 -20 5 -25
25 -25 20 0 25 -5 25 -25 0 -23 3 -25 50 -25 47 0 50 2 50 25 0 20 5 25 25 25
20 0 25 5 25 25 0 20 5 25 25 25 20 0 25 5 25 25 0 20 5 25 25 25 24 0 25 2
25 75 0 73 -1 75 -25 75 -20 0 -25 5 -25 25 0 23 -3 25 -50 25 -47 0 -50 -2
-50 -25 0 -23 -3 -25 -50 -25 -47 0 -50 2 -50 25 0 23 -3 25 -50 25 -47 0 -50
-2 -50 -25z"/>
<path d="M4450 2625 c0 -20 -5 -25 -25 -25 l-25 0 0 -275 0 -275 25 0 c20 0
25 -5 25 -25 l0 -25 100 0 100 0 0 -25 c0 -20 5 -25 25 -25 20 0 25 -5 25 -25
0 -20 5 -25 25 -25 20 0 25 -5 25 -25 0 -23 3 -25 50 -25 47 0 50 2 50 25 0
20 5 25 25 25 20 0 25 5 25 25 0 20 5 25 25 25 20 0 25 5 25 25 l0 25 100 0
100 0 0 25 c0 20 5 25 25 25 l25 0 0 275 0 275 -25 0 c-20 0 -25 5 -25 25 l0
25 -350 0 -350 0 0 -25z m700 -300 l0 -275 -100 0 -100 0 0 -25 c0 -20 -5 -25
-25 -25 -20 0 -25 -5 -25 -25 0 -20 -5 -25 -25 -25 -20 0 -25 -5 -25 -25 0
-23 -3 -25 -50 -25 -47 0 -50 2 -50 25 0 20 -5 25 -25 25 -20 0 -25 5 -25 25
0 20 -5 25 -25 25 -20 0 -25 5 -25 25 l0 25 -100 0 -100 0 0 275 0 275 350 0
350 0 0 -275z"/>
<path d="M4600 2425 c0 -20 -5 -25 -25 -25 -24 0 -25 -2 -25 -75 0 -73 1 -75
25 -75 20 0 25 -5 25 -25 0 -20 5 -25 25 -25 20 0 25 -5 25 -25 0 -20 5 -25
25 -25 20 0 25 -5 25 -25 0 -20 5 -25 25 -25 20 0 25 5 25 25 0 20 -5 25 -25
25 -20 0 -25 5 -25 25 0 20 5 25 25 25 20 0 25 5 25 25 0 20 -5 25 -25 25 -20
0 -25 5 -25 25 0 20 5 25 25 25 20 0 25 5 25 25 0 20 -5 25 -25 25 -23 0 -25
3 -25 50 l0 50 -50 0 c-47 0 -50 -2 -50 -25z"/>
<path d="M4900 2425 c0 -20 -5 -25 -25 -25 -20 0 -25 -5 -25 -25 0 -20 5 -25
25 -25 20 0 25 -5 25 -25 0 -20 -5 -25 -25 -25 -20 0 -25 -5 -25 -25 0 -20 5
-25 25 -25 20 0 25 -5 25 -25 0 -20 -5 -25 -25 -25 -20 0 -25 -5 -25 -25 0
-23 3 -25 50 -25 47 0 50 2 50 25 0 20 5 25 25 25 20 0 25 5 25 25 0 20 5 25
25 25 24 0 25 2 25 75 0 73 -1 75 -25 75 -20 0 -25 5 -25 25 0 23 -3 25 -50
25 -47 0 -50 -2 -50 -25z"/>
<path d="M200 1775 c0 -20 -5 -25 -25 -25 l-25 0 0 -275 0 -275 25 0 c20 0 25
-5 25 -25 l0 -25 100 0 100 0 0 -25 c0 -20 5 -25 25 -25 20 0 25 -5 25 -25 0
-20 5 -25 25 -25 20 0 25 -5 25 -25 0 -23 3 -25 50 -25 47 0 50 2 50 25 0 20
5 25 25 25 20 0 25 5 25 25 0 20 5 25 25 25 20 0 25 5 25 25 l0 25 100 0 100
0 0 25 c0 20 5 25 25 25 l25 0 0 275 0 275 -25 0 c-20 0 -25 5 -25 25 l0 25
-350 0 -350 0 0 -25z m700 -300 l0 -275 -100 0 -100 0 0 -25 c0 -20 -5 -25
-25 -25 -20 0 -25 -5 -25 -25 0 -20 -5 -25 -25 -25 -20 0 -25 -5 -25 -25 0
-23 -3 -25 -50 -25 -47 0 -50 2 -50 25 0 20 -5 25 -25 25 -20 0 -25 5 -25 25
0 20 -5 25 -25 25 -20 0 -25 5 -25 25 l0 25 -100 0 -100 0 0 275 0 275 350 0
350 0 0 -275z"/>
<path d="M250 1575 c0 -20 5 -25 25 -25 l25 0 0 -100 0 -100 25 0 25 0 0 100
0 100 25 0 c20 0 25 5 25 25 0 24 -2 25 -75 25 -73 0 -75 -1 -75 -25z"/>
<path d="M450 1475 l0 -125 25 0 c23 0 25 3 25 50 0 47 2 50 25 50 23 0 25 -3
25 -50 0 -47 2 -50 25 -50 l25 0 0 125 0 125 -25 0 c-23 0 -25 -3 -25 -50 0
-47 -2 -50 -25 -50 -23 0 -25 3 -25 50 0 47 -2 50 -25 50 l-25 0 0 -125z"/>
<path d="M650 1550 c0 -47 2 -50 25 -50 20 0 25 -5 25 -25 0 -20 -5 -25 -25
-25 -23 0 -25 -3 -25 -50 0 -47 2 -50 25 -50 23 0 25 3 25 50 l0 50 50 0 50 0
0 -50 c0 -47 2 -50 25 -50 23 0 25 3 25 50 0 47 -2 50 -25 50 -20 0 -25 5 -25
25 0 20 5 25 25 25 23 0 25 3 25 50 0 47 -2 50 -25 50 -23 0 -25 -3 -25 -50
l0 -50 -50 0 -50 0 0 50 c0 47 -2 50 -25 50 -23 0 -25 -3 -25 -50z"/>
<path d="M1050 1775 c0 -20 -5 -25 -25 -25 l-25 0 0 -275 0 -275 25 0 c20 0
25 -5 25 -25 l0 -25 100 0 100 0 0 -25 c0 -20 5 -25 25 -25 20 0 25 -5 25 -25
0 -20 5 -25 25 -25 20 0 25 -5 25 -25 0 -23 3 -25 50 -25 47 0 50 2 50 25 0
20 5 25 25 25 20 0 25 5 25 25 0 20 5 25 25 25 20 0 25 5 25 25 l0 25 100 0
100 0 0 25 c0 20 5 25 25 25 l25 0 0 275 0 275 -25 0 c-20 0 -25 5 -25 25 l0
25 -350 0 -350 0 0 -25z m700 -300 l0 -275 -100 0 -100 0 0 -25 c0 -20 -5 -25
-25 -25 -20 0 -25 -5 -25 -25 0 -20 -5 -25 -25 -25 -20 0 -25 -5 -25 -25 0
-23 -3 -25 -50 -25 -47 0 -50 2 -50 25 0 20 -5 25 -25 25 -20 0 -25 5 -25 25
0 20 -5 25 -25 25 -20 0 -25 5 -25 25 l0 25 -100 0 -100 0 0 275 0 275 350 0
350 0 0 -275z"/>
<path d="M1150 1475 l0 -125 50 0 c47 0 50 2 50 25 0 20 -5 25 -25 25 l-25 0
0 100 0 100 -25 0 -25 0 0 -125z"/>
<path d="M1350 1575 c0 -20 -5 -25 -25 -25 -24 0 -25 -2 -25 -75 0 -73 1 -75
25 -75 20 0 25 -5 25 -25 0 -23 3 -25 50 -25 47 0 50 2 50 25 0 20 5 25 25 25
24 0 25 2 25 75 0 73 -1 75 -25 75 -20 0 -25 5 -25 25 0 23 -3 25 -50 25 -47
0 -50 -2 -50 -25z m100 -100 l0 -75 -50 0 -50 0 0 75 0 75 50 0 50 0 0 -75z"/>
<path d="M1550 1475 l0 -125 50 0 c47 0 50 2 50 25 0 20 -5 25 -25 25 l-25 0
0 100 0 100 -25 0 -25 0 0 -125z"/>
<path d="M1900 1775 c0 -20 -5 -25 -25 -25 l-25 0 0 -275 0 -275 25 0 c20 0
25 -5 25 -25 l0 -25 100 0 100 0 0 -25 c0 -20 5 -25 25 -25 20 0 25 -5 25 -25
0 -20 5 -25 25 -25 20 0 25 -5 25 -25 0 -23 3 -25 50 -25 47 0 50 2 50 25 0
20 5 25 25 25 20 0 25 5 25 25 0 20 5 25 25 25 20 0 25 5 25 25 l0 25 100 0
100 0 0 25 c0 20 5 25 25 25 l25 0 0 275 0 275 -25 0 c-20 0 -25 5 -25 25 l0
25 -350 0 -350 0 0 -25z m700 -300 l0 -275 -100 0 -100 0 0 -25 c0 -20 -5 -25
-25 -25 -20 0 -25 -5 -25 -25 0 -20 -5 -25 -25 -25 -20 0 -25 -5 -25 -25 0
-23 -3 -25 -50 -25 -47 0 -50 2 -50 25 0 20 -5 25 -25 25 -20 0 -25 5 -25 25
0 20 -5 25 -25 25 -20 0 -25 5 -25 25 l0 25 -100 0 -100 0 0 275 0 275 350 0
350 0 0 -275z"/>
<path d="M1950 1525 l0 -75 50 0 c47 0 50 -2 50 -25 0 -23 -3 -25 -50 -25 -47
0 -50 -2 -50 -25 0 -24 2 -25 75 -25 l75 0 0 75 0 75 -50 0 c-47 0 -50 2 -50
25 0 23 3 25 50 25 47 0 50 2 50 25 0 24 -2 25 -75 25 l-75 0 0 -75z"/>
<path d="M2200 1575 c0 -20 -5 -25 -25 -25 -24 0 -25 -2 -25 -75 0 -73 1 -75
25 -75 20 0 25 -5 25 -25 0 -23 3 -25 50 -25 47 0 50 2 50 25 0 20 5 25 25 25
24 0 25 2 25 75 0 73 -1 75 -25 75 -20 0 -25 5 -25 25 0 23 -3 25 -50 25 -47
0 -50 -2 -50 -25z m100 -100 l0 -75 -50 0 -50 0 0 75 0 75 50 0 50 0 0 -75z"/>
<path d="M2400 1525 l0 -75 50 0 c47 0 50 -2 50 -25 0 -23 -3 -25 -50 -25 -47
0 -50 -2 -50 -25 0 -24 2 -25 75 -25 l75 0 0 75 0 75 -50 0 c-47 0 -50 2 -50
25 0 23 3 25 50 25 47 0 50 2 50 25 0 24 -2 25 -75 25 l-75 0 0 -75z"/>
<path d="M2750 1775 c0 -20 -5 -25 -25 -25 l-25 0 0 -275 0 -275 25 0 c20 0
25 -5 25 -25 l0 -25 100 0 100 0 0 -25 c0 -20 5 -25 25 -25 20 0 25 -5 25 -25
0 -20 5 -25 25 -25 20 0 25 -5 25 -25 0 -23 3 -25 50 -25 47 0 50 2 50 25 0
20 5 25 25 25 20 0 25 5 25 25 0 20 5 25 25 25 20 0 25 5 25 25 l0 25 100 0
100 0 0 25 c0 20 5 25 25 25 l25 0 0 275 0 275 -25 0 c-20 0 -25 5 -25 25 l0
25 -350 0 -350 0 0 -25z m700 -300 l0 -275 -100 0 -100 0 0 -25 c0 -20 -5 -25
-25 -25 -20 0 -25 -5 -25 -25 0 -20 -5 -25 -25 -25 -20 0 -25 -5 -25 -25 0
-23 -3 -25 -50 -25 -47 0 -50 2 -50 25 0 20 -5 25 -25 25 -20 0 -25 5 -25 25
0 20 -5 25 -25 25 -20 0 -25 5 -25 25 l0 25 -100 0 -100 0 0 275 0 275 350 0
350 0 0 -275z"/>
<path d="M2850 1475 l0 -125 25 0 c23 0 25 3 25 50 0 47 2 50 25 50 23 0 25
-3 25 -50 0 -47 2 -50 25 -50 23 0 25 3 25 50 0 47 -2 50 -25 50 -20 0 -25 5
-25 25 0 20 5 25 25 25 20 0 25 5 25 25 0 20 -5 25 -25 25 -20 0 -25 5 -25 25
0 23 -3 25 -50 25 l-50 0 0 -125z m100 50 c0 -20 -5 -25 -25 -25 -20 0 -25 5
-25 25 0 20 5 25 25 25 20 0 25 -5 25 -25z"/>
<path d="M3050 1575 c0 -20 5 -25 25 -25 24 0 25 -2 25 -75 0 -73 -1 -75 -25
-75 -20 0 -25 -5 -25 -25 0 -24 2 -25 75 -25 73 0 75 1 75 25 0 20 -5 25 -25
25 -24 0 -25 2 -25 75 0 73 1 75 25 75 20 0 25 5 25 25 0 24 -2 25 -75 25 -73
0 -75 -1 -75 -25z"/>
<path d="M3250 1475 l0 -125 25 0 c23 0 25 3 25 50 0 47 2 50 25 50 20 0 25 5
25 25 0 20 5 25 25 25 20 0 25 5 25 25 0 20 -5 25 -25 25 -20 0 -25 5 -25 25
0 23 -3 25 -50 25 l-50 0 0 -125z m100 50 c0 -20 -5 -25 -25 -25 -20 0 -25 5
-25 25 0 20 5 25 25 25 20 0 25 -5 25 -25z"/>
<path d="M3600 1775 c0 -20 -5 -25 -25 -25 l-25 0 0 -275 0 -275 25 0 c20 0
25 -5 25 -25 l0 -25 100 0 100 0 0 -25 c0 -20 5 -25 25 -25 20 0 25 -5 25 -25
0 -20 5 -25 25 -25 20 0 25 -5 25 -25 0 -23 3 -25 50 -25 47 0 50 2 50 25 0
20 5 25 25 25 20 0 25 5 25 25 0 20 5 25 25 25 20 0 25 5 25 25 l0 25 100 0
100 0 0 25 c0 20 5 25 25 25 l25 0 0 275 0 275 -25 0 c-20 0 -25 5 -25 25 l0
25 -350 0 -350 0 0 -25z m700 -300 l0 -275 -100 0 -100 0 0 -25 c0 -20 -5 -25
-25 -25 -20 0 -25 -5 -25 -25 0 -20 -5 -25 -25 -25 -20 0 -25 -5 -25 -25 0
-23 -3 -25 -50 -25 -47 0 -50 2 -50 25 0 20 -5 25 -25 25 -20 0 -25 5 -25 25
0 20 -5 25 -25 25 -20 0 -25 5 -25 25 l0 25 -100 0 -100 0 0 275 0 275 350 0
350 0 0 -275z"/>
<path d="M3700 1525 c0 -73 1 -75 25 -75 23 0 25 -3 25 -50 0 -47 2 -50 25
-50 23 0 25 3 25 50 0 47 2 50 25 50 24 0 25 2 25 75 0 73 -1 75 -25 75 -24 0
-25 -2 -25 -75 0 -73 -1 -75 -25 -75 -24 0 -25 2 -25 75 0 73 -1 75 -25 75
-24 0 -25 -2 -25 -75z"/>
<path d="M3900 1475 l0 -125 50 0 c47 0 50 2 50 25 0 20 -5 25 -25 25 -20 0
-25 5 -25 25 0 20 5 25 25 25 20 0 25 5 25 25 0 20 -5 25 -25 25 -20 0 -25 5
-25 25 0 20 5 25 25 25 20 0 25 5 25 25 0 23 -3 25 -50 25 l-50 0 0 -125z"/>
<path d="M4050 1525 l0 -75 50 0 c47 0 50 -2 50 -25 0 -23 -3 -25 -50 -25 -47
0 -50 -2 -50 -25 0 -24 2 -25 75 -25 l75 0 0 75 0 75 -50 0 c-47 0 -50 2 -50
25 0 23 3 25 50 25 47 0 50 2 50 25 0 24 -2 25 -75 25 l-75 0 0 -75z"/>
<path d="M200 925 c0 -20 -5 -25 -25 -25 l-25 0 0 -275 0 -275 25 0 c20 0 25
-5 25 -25 l0 -25 100 0 100 0 0 -25 c0 -20 5 -25 25 -25 20 0 25 -5 25 -25 0
-20 5 -25 25 -25 20 0 25 -5 25 -25 0 -23 3 -25 50 -25 47 0 50 2 50 25 0 20
5 25 25 25 20 0 25 5 25 25 0 20 5 25 25 25 20 0 25 5 25 25 l0 25 100 0 100
0 0 25 c0 20 5 25 25 25 l25 0 0 275 0 275 -25 0 c-20 0 -25 5 -25 25 l0 25
-350 0 -350 0 0 -25z m700 -300 l0 -275 -100 0 -100 0 0 -25 c0 -20 -5 -25
-25 -25 -20 0 -25 -5 -25 -25 0 -20 -5 -25 -25 -25 -20 0 -25 -5 -25 -25 0
-23 -3 -25 -50 -25 -47 0 -50 2 -50 25 0 20 -5 25 -25 25 -20 0 -25 5 -25 25
0 20 -5 25 -25 25 -20 0 -25 5 -25 25 l0 25 -100 0 -100 0 0 275 0 275 350 0
350 0 0 -275z"/>
<path d="M500 775 c0 -20 -5 -25 -25 -25 -20 0 -25 -5 -25 -25 0 -20 -5 -25
-25 -25 -20 0 -25 -5 -25 -25 0 -23 3 -25 50 -25 l50 0 0 -100 0 -100 50 0 50
0 0 100 0 100 50 0 c47 0 50 2 50 25 0 20 -5 25 -25 25 -20 0 -25 5 -25 25 0
20 -5 25 -25 25 -20 0 -25 5 -25 25 0 23 -3 25 -50 25 -47 0 -50 -2 -50 -25z"/>
<path d="M1050 925 c0 -20 -5 -25 -25 -25 l-25 0 0 -275 0 -275 25 0 c20 0 25
-5 25 -25 l0 -25 100 0 100 0 0 -25 c0 -20 5 -25 25 -25 20 0 25 -5 25 -25 0
-20 5 -25 25 -25 20 0 25 -5 25 -25 0 -23 3 -25 50 -25 47 0 50 2 50 25 0 20
5 25 25 25 20 0 25 5 25 25 0 20 5 25 25 25 20 0 25 5 25 25 l0 25 100 0 100
0 0 25 c0 20 5 25 25 25 l25 0 0 275 0 275 -25 0 c-20 0 -25 5 -25 25 l0 25
-350 0 -350 0 0 -25z m700 -300 l0 -275 -100 0 -100 0 0 -25 c0 -20 -5 -25
-25 -25 -20 0 -25 -5 -25 -25 0 -20 -5 -25 -25 -25 -20 0 -25 -5 -25 -25 0
-23 -3 -25 -50 -25 -47 0 -50 2 -50 25 0 20 -5 25 -25 25 -20 0 -25 5 -25 25
0 20 -5 25 -25 25 -20 0 -25 5 -25 25 l0 25 -100 0 -100 0 0 275 0 275 350 0
350 0 0 -275z"/>
<path d="M1350 700 l0 -100 -50 0 c-47 0 -50 -2 -50 -25 0 -20 5 -25 25 -25
20 0 25 -5 25 -25 0 -20 5 -25 25 -25 20 0 25 -5 25 -25 0 -23 3 -25 50 -25
47 0 50 2 50 25 0 20 5 25 25 25 20 0 25 5 25 25 0 20 5 25 25 25 20 0 25 5
25 25 0 23 -3 25 -50 25 l-50 0 0 100 0 100 -50 0 -50 0 0 -100z"/>
<path d="M1900 925 c0 -20 -5 -25 -25 -25 l-25 0 0 -275 0 -275 25 0 c20 0 25
-5 25 -25 l0 -25 100 0 100 0 0 -25 c0 -20 5 -25 25 -25 20 0 25 -5 25 -25 0
-20 5 -25 25 -25 20 0 25 -5 25 -25 0 -23 3 -25 50 -25 47 0 50 2 50 25 0 20
5 25 25 25 20 0 25 5 25 25 0 20 5 25 25 25 20 0 25 5 25 25 l0 25 100 0 100
0 0 25 c0 20 5 25 25 25 l25 0 0 275 0 275 -25 0 c-20 0 -25 5 -25 25 l0 25
-350 0 -350 0 0 -25z m700 -300 l0 -275 -100 0 -100 0 0 -25 c0 -20 -5 -25
-25 -25 -20 0 -25 -5 -25 -25 0 -20 -5 -25 -25 -25 -20 0 -25 -5 -25 -25 0
-23 -3 -25 -50 -25 -47 0 -50 2 -50 25 0 20 -5 25 -25 25 -20 0 -25 5 -25 25
0 20 -5 25 -25 25 -20 0 -25 5 -25 25 l0 25 -100 0 -100 0 0 275 0 275 350 0
350 0 0 -275z"/>
<path d="M2250 700 l0 -50 -75 0 -75 0 0 -50 0 -50 75 0 75 0 0 -50 c0 -47 2
-50 25 -50 20 0 25 5 25 25 0 20 5 25 25 25 20 0 25 5 25 25 0 20 5 25 25 25
23 0 25 3 25 50 0 47 -2 50 -25 50 -20 0 -25 5 -25 25 0 20 -5 25 -25 25 -20
0 -25 5 -25 25 0 20 -5 25 -25 25 -23 0 -25 -3 -25 -50z"/>
<path d="M2750 925 c0 -20 -5 -25 -25 -25 l-25 0 0 -275 0 -275 25 0 c20 0 25
-5 25 -25 l0 -25 100 0 100 0 0 -25 c0 -20 5 -25 25 -25 20 0 25 -5 25 -25 0
-20 5 -25 25 -25 20 0 25 -5 25 -25 0 -23 3 -25 50 -25 47 0 50 2 50 25 0 20
5 25 25 25 20 0 25 5 25 25 0 20 5 25 25 25 20 0 25 5 25 25 l0 25 100 0 100
0 0 25 c0 20 5 25 25 25 l25 0 0 275 0 275 -25 0 c-20 0 -25 5 -25 25 l0 25
-350 0 -350 0 0 -25z m700 -300 l0 -275 -100 0 -100 0 0 -25 c0 -20 -5 -25
-25 -25 -20 0 -25 -5 -25 -25 0 -20 -5 -25 -25 -25 -20 0 -25 -5 -25 -25 0
-23 -3 -25 -50 -25 -47 0 -50 2 -50 25 0 20 -5 25 -25 25 -20 0 -25 5 -25 25
0 20 -5 25 -25 25 -20 0 -25 5 -25 25 l0 25 -100 0 -100 0 0 275 0 275 350 0
350 0 0 -275z"/>
<path d="M3050 725 c0 -20 -5 -25 -25 -25 -20 0 -25 -5 -25 -25 0 -20 -5 -25
-25 -25 -23 0 -25 -3 -25 -50 0 -47 2 -50 25 -50 20 0 25 -5 25 -25 0 -20 5
-25 25 -25 20 0 25 -5 25 -25 0 -20 5 -25 25 -25 23 0 25 3 25 50 l0 50 75 0
75 0 0 50 0 50 -75 0 -75 0 0 50 c0 47 -2 50 -25 50 -20 0 -25 -5 -25 -25z"/>
</g>
</svg>
